<svg xmlns="http://www.w3.org/2000/svg" viewBox="0 0 512 512" width="512" height="512" role="img" aria-label="EduSphere">
  <defs>
    <linearGradient id="es-tile" x1="0" y1="0" x2="0.85" y2="1">
      <stop stop-color="#103A8E" />
      <stop offset="1" stop-color="#062765" />
    </linearGradient>
    <linearGradient id="es-sphere" x1="0" y1="0" x2="1" y2="1">
      <stop stop-color="#1677E8" />
      <stop offset="1" stop-color="#123B8E" />
    </linearGradient>
  </defs>

  <rect width="512" height="512" rx="118" fill="url(#es-tile)" />
  <ellipse cx="256" cy="300" rx="220" ry="76" transform="rotate(-22 256 300)" fill="none" stroke="#19A7F2" stroke-width="22" stroke-linecap="round" />
  <circle cx="256" cy="300" r="168" fill="url(#es-sphere)" />
  <g fill="none" stroke="#FFFFFF" stroke-width="11" stroke-linecap="round" opacity="0.3">
    <path d="M116 224 Q108 288 120 376" />
    <path d="M396 224 Q404 288 392 376" />
  </g>
  <g fill="#FFFFFF">
    <path d="M172 152 L320 152 L299 174.4 H193 Z" stroke-linejoin="round" />
    <rect x="217.6" y="174.4" width="76.8" height="33.6" rx="16.8" />
  </g>
  <path d="M316.8 156.8 Q364 140 384 168" fill="none" stroke="#F5A900" stroke-width="13.6" stroke-linecap="round" />
  <circle cx="385.6" cy="172.8" r="11.2" fill="#F5A900" />
  <g fill="none" stroke="#FFFFFF" stroke-width="16" stroke-linecap="round" stroke-linejoin="round">
    <path d="M164 268 Q212 328 256 336" />
    <path d="M348 268 Q300 328 256 336" />
    <path d="M256 336 V368" />
    <path d="M164 268 V300 Q208 350.4 256 353.6" opacity="0.45" />
    <path d="M348 268 V300 Q304 350.4 256 353.6" opacity="0.45" />
  </g>
  <rect x="400" y="36" width="48" height="48" rx="16" fill="#F5A900" />
  <rect x="460" y="40" width="44" height="44" rx="14.4" fill="#19A7F2" />
  <rect x="420" y="108" width="40" height="40" rx="13.6" fill="#19B65A" />
</svg>